<?xml version="1.0" standalone="no"?><!-- Generator: Gravit.io --><svg xmlns="http://www.w3.org/2000/svg" xmlns:xlink="http://www.w3.org/1999/xlink" style="isolation:isolate" viewBox="0 0 224.508 194.43" width="224.508" height="194.43"><defs><clipPath id="_clipPath_YWAALDEREk74DIGnFEIzQs8sJw8sOhb9"><rect width="224.508" height="194.43"/></clipPath></defs><g clip-path="url(#_clipPath_YWAALDEREk74DIGnFEIzQs8sJw8sOhb9)"><polygon points="168.381,194.43,56.127,194.43,0,97.215,56.127,0,168.381,0,224.508,97.215" fill="rgb(123,191,255)"/><clipPath id="_clipPath_fRpCq7Gh50sZe4tulqFuXG7ddLQoqvyt"><polygon points="168.381,194.43,56.127,194.43,0,97.215,56.127,0,168.381,0,224.508,97.215" fill="rgb(123,191,255)"/></clipPath><g clip-path="url(#_clipPath_fRpCq7Gh50sZe4tulqFuXG7ddLQoqvyt)"><g id="Group"><path d=" M 78.837 108.31 C 74.806 98.371 67.424 89.83 57.926 84.766 M 122.927 73.889 C 115.325 62.74 94.458 44.758 75.688 42.666 M 101.153 92.784 C 95.277 80.212 84.644 70.172 71.877 64.787" fill="none" vector-effect="non-scaling-stroke" stroke-width="11.596" stroke="rgb(191,54,12)" stroke-linejoin="round" stroke-linecap="round" stroke-miterlimit="10"/><path d=" M 161.55 125.802 C 159.812 126.684 135.285 140.685 126.543 145.957 C 115.155 152.08 103.761 156.457 97.632 156.457 C 97.191 156.457 96.776 156.388 96.328 156.363 L 96.284 156.633 C 94.503 164.586 91.203 172.121 86.566 178.823 C 93.086 180.201 99.729 180.918 106.394 180.965 C 126.549 180.965 143.177 179.22 155.428 175.699 C 162.294 174.862 174.696 168.708 174.696 168.708 C 181.12 165.489 183.552 151.047 167.018 155.771 C 188.471 135.105 180.283 114.433 161.557 125.802 L 161.55 125.802 Z " fill="rgb(221,44,0)"/><path d=" M 83.983 153.944 L 83.933 153.944 L 84.002 153.944 C 63.343 146.297 51.205 122.407 51.256 105.678 C 51.281 91.802 63.015 73.246 74.063 62.79 C 78.295 58.785 83.983 45.545 72.539 42.396 C 61.39 20.224 50.689 23.128 39.301 -8.39 C 22.937 -14.292 4.854 24.262 4.854 24.262 C -27.332 110.276 24.663 159.682 73.496 175.403 L 73.477 175.403 C 78.647 169.197 82.25 161.84 83.983 153.95 L 83.983 153.944 Z  M 166.06 156.363 C 166.06 156.363 134.882 173.533 92.146 168.935 C 90.587 172.392 88.719 175.702 86.566 178.823 C 93.086 180.201 99.729 180.918 106.394 180.965 C 126.549 180.965 143.177 179.22 155.428 175.699 C 162.294 174.862 174.696 168.708 174.696 168.708 C 181.12 165.489 183.552 151.047 167.018 155.771 C 167.068 155.72 167.118 155.67 167.169 155.645 L 166.06 156.363 Z " fill="rgb(255,87,34)"/><path d=" M 148.393 -8.245 L 196.445 -39.738 C 196.445 -39.738 171.175 -35.178 154.42 -33.188 C 159.686 -35.795 180.478 -45.785 179.59 -45.785 C 65.774 -33.534 53.007 -27.406 42.5 -16.874 C 27.611 -3.761 61.346 50.439 78.843 48.694 C 113.946 30.586 160.644 8.666 173.323 -7.993 L 148.393 -8.245 Z " fill="rgb(255,87,34)"/><path d=" M 96.328 156.363 C 92.115 156.238 87.951 155.423 84.002 153.95 L 83.933 153.95 L 83.983 153.95 C 82.247 161.835 78.651 169.19 73.496 175.403 C 75.467 176.046 77.464 176.638 79.404 177.154 C 81.199 177.595 83.511 178.137 86.54 178.823 L 86.591 178.823 C 91.23 172.125 94.522 164.589 96.284 156.633 L 96.328 156.363 Z  M 65.919 141.303 C 63.041 138.11 60.533 134.602 58.442 130.847 L 58.442 130.872 C 51.004 139.9 41.626 147.134 31.005 152.035 C 34.577 155.059 38.293 157.811 42.154 160.35 C 51.094 155.388 59.129 148.948 65.919 141.303 Z  M 51.23 105.678 C 51.256 103.757 51.526 101.716 51.948 99.65 C 42.47 101.623 32.814 102.613 23.132 102.604 C 14.547 102.604 6.183 101.817 -1.987 100.336 C -0.784 104.985 0.697 109.419 2.466 113.645 C 9.382 114.584 16.292 115.201 23.132 115.201 C 32.777 115.189 42.399 114.273 51.873 112.468 C 51.472 110.226 51.257 107.955 51.23 105.678 Z  M 58.442 83.236 C 60.634 79.274 63.191 75.438 65.919 71.917 C 65.893 71.917 65.893 71.917 65.893 71.942 C 41.125 67.679 18.246 55.966 0.306 38.364 C -1.007 43 -2.09 47.699 -2.938 52.442 C 14.54 67.809 35.681 78.417 58.449 83.242 L 58.442 83.236 Z  M 77.999 48.745 C 62.99 48.745 37.499 10.953 38.954 -8.459 C 34.722 -9.814 30.388 -8.239 26.282 -5.184 C 26.483 -0.246 27.636 5.612 30.269 12.553 C 37.386 31.398 56.345 58.854 75.518 61.115 C 77.848 57.966 79.971 52.826 79.032 48.593 C 78.988 48.644 78.906 48.669 78.862 48.694 C 78.566 48.719 78.295 48.745 77.999 48.745 Z " fill="rgb(255,204,188)"/><path d=" M 154.42 -33.188 C 154.42 -26.231 148.78 -20.591 141.823 -20.591 C 134.866 -20.591 129.226 -26.231 129.226 -33.188 C 129.226 -40.145 134.866 -45.785 141.823 -45.785 C 148.78 -45.785 154.42 -40.145 154.42 -33.188 Z " fill="rgb(62,39,35)"/></g></g></g></svg>